<?xml version="1.0" encoding="utf-8"?>
<!-- Generator: Adobe Illustrator 21.0.2, SVG Export Plug-In . SVG Version: 6.00 Build 0)  -->
<svg version="1.1" id="圖層_1" xmlns:sketch="http://www.bohemiancoding.com/sketch/ns"
	 xmlns="http://www.w3.org/2000/svg" xmlns:xlink="http://www.w3.org/1999/xlink" x="0px" y="0px" viewBox="0 0 32 32"
	 style="enable-background:new 0 0 32 32;" xml:space="preserve">
<style type="text/css">
	.st0{fill:#555555;}
</style>
<title></title>
<desc></desc>
<g id="Page-1">
	<g id="icon-111-search">
		<path id="search" class="st0" d="M20.5,23.3c-2,1.4-4.3,2.2-6.9,2.2C7,25.5,1.7,20.2,1.7,13.6S7,1.7,13.6,1.7S25.5,7,25.5,13.6
			c0,2.6-0.8,5-2.2,6.9l7.8,7.8c0.8,0.8,0.8,2,0,2.8l0,0c-0.8,0.8-2,0.8-2.8,0L20.5,23.3L20.5,23.3z M13.6,22.7c5,0,9.1-4.1,9.1-9.1
			s-4.1-9.1-9.1-9.1s-9.1,4.1-9.1,9.1S8.6,22.7,13.6,22.7L13.6,22.7z"/>
	</g>
</g>
</svg>
