<svg xmlns="http://www.w3.org/2000/svg" width="13" height="13" viewBox="0 0 13 13">
    <path fill="#FFB647" fill-rule="nonzero" d="M5.577 1.699a.96.96 0 0 1 1.846 0l.633 2.03c.13.416.503.698.923.698h2.048c.94 0 1.332 1.254.571 1.83L9.941 7.511c-.34.258-.482.714-.352 1.131l.632 2.03c.291.931-.733 1.706-1.494 1.13l-1.656-1.254a.94.94 0 0 0-1.142 0l-1.656 1.254c-.761.576-1.785-.199-1.494-1.13l.632-2.03a1.035 1.035 0 0 0-.352-1.13L1.402 6.256c-.76-.576-.37-1.83.57-1.83h2.049c.42 0 .793-.282.923-.699l.633-2.03z"/>
</svg>
